<svg width="184" height="55" viewBox="0 0 184 55" fill="none" xmlns="http://www.w3.org/2000/svg">
<path d="M8.5625 32.3594L8.39844 34.8203C8.39844 36.1016 8.59375 37.125 8.98438 37.8906C9.39062 38.6562 10.125 39.0391 11.1875 39.0391C11.7969 39.0391 12.3828 38.8359 12.9453 38.4297C13.5078 38.0078 13.9609 37.4141 14.3047 36.6484C15.4609 34.2734 16.6016 30.75 17.7266 26.0781L20.5156 11.6875C20.7188 11.0781 21.7266 10.7734 23.5391 10.7734H25.7422C25.5391 11.9297 25.2734 13.7266 24.9453 16.1641C24.6172 18.5859 24.3281 20.5391 24.0781 22.0234C23.8438 23.5078 23.3984 25.3516 22.7422 27.5547C22.1016 29.7578 21.3047 31.8438 20.3516 33.8125C20.8047 35.1875 21.6875 36.3359 23 37.2578C24.3125 38.1641 25.6641 38.6172 27.0547 38.6172C28.4609 38.6172 29.8359 38.2266 31.1797 37.4453C32.5391 36.6484 33.75 35.5625 34.8125 34.1875C35.8906 32.8125 36.7578 31.0938 37.4141 29.0312C38.0703 26.9688 38.3984 24.9375 38.3984 22.9375C38.3984 20.9219 38.2344 19.1875 37.9062 17.7344C37.5938 16.2812 37.0781 14.9141 36.3594 13.6328C35.6562 12.3516 34.7812 11.25 33.7344 10.3281C31.4844 8.34375 28.4688 7.35156 24.6875 7.35156C22.4219 7.35156 20.1641 7.80469 17.9141 8.71094C15.6797 9.61719 13.8594 10.7656 12.4531 12.1562C11.0625 13.5469 10.3672 14.9062 10.3672 16.2344C10.3672 18.0625 11.6484 19.4688 14.2109 20.4531C14.2109 21.1719 14.1406 21.9297 14 22.7266C13.8594 23.5078 13.7266 24.0156 13.6016 24.25C11.2734 23.5156 9.52344 22.4688 8.35156 21.1094C7.17969 19.7344 6.59375 18.3438 6.59375 16.9375C6.59375 15.5156 6.85156 14.2422 7.36719 13.1172C7.88281 11.9766 8.70312 10.8828 9.82812 9.83594C10.9688 8.77344 12.3438 7.84375 13.9531 7.04688C17.5156 5.29687 22.1172 4.42188 27.7578 4.42188C30.0078 4.42188 32.0703 4.75 33.9453 5.40625C35.8359 6.0625 37.4141 6.92969 38.6797 8.00781C39.9453 9.08594 41.0234 10.3281 41.9141 11.7344C43.6016 14.4219 44.4453 17.2734 44.4453 20.2891C44.4453 23.2891 44 26.0703 43.1094 28.6328C42.2344 31.1797 41.0391 33.3828 39.5234 35.2422C38.0234 37.1016 36.2031 38.5859 34.0625 39.6953C31.9375 40.7891 29.6719 41.3359 27.2656 41.3359C23.7031 41.3359 20.8438 39.8516 18.6875 36.8828C17.4688 38.6328 16.1562 39.8047 14.75 40.3984C13.3438 40.9922 11.7422 41.2891 9.94531 41.2891C8.14844 41.2891 6.66406 40.7031 5.49219 39.5312C4.33594 38.3438 3.75781 37.0625 3.75781 35.6875C3.75781 33.4688 5.35938 32.3594 8.5625 32.3594ZM60.7812 20.6172C60.7812 21.0703 60.6094 21.4062 60.2656 21.625C57.1562 21.625 54.7812 22.5156 53.1406 24.2969C51.6094 25.9844 50.8438 27.8828 50.8438 29.9922C50.8438 32.0859 51.3047 33.7578 52.2266 35.0078C53.1641 36.2578 54.3047 36.8828 55.6484 36.8828C56.9922 36.8828 58.2891 36.1797 59.5391 34.7734C58.3672 34.0391 57.4609 33.0703 56.8203 31.8672C56.1953 30.6641 55.8828 29.4453 55.8828 28.2109C55.8828 26.9609 56.2578 25.9531 57.0078 25.1875C57.7578 24.4062 58.8438 24.0156 60.2656 24.0156C61.6875 24.0156 62.7188 24.3984 63.3594 25.1641C64.0156 25.9297 64.3438 26.8672 64.3438 27.9766C64.3438 30.2578 63.6172 32.2812 62.1641 34.0469C62.5547 34.2031 62.8906 34.2812 63.1719 34.2812C63.4531 34.2812 63.7422 34.2188 64.0391 34.0938C64.3516 33.9531 64.7031 33.7188 65.0938 33.3906C65.4844 33.0469 65.8281 32.7266 66.125 32.4297C66.4219 32.1328 66.8516 31.6875 67.4141 31.0938C67.9766 30.5 68.4531 30.0156 68.8438 29.6406V32.2188C67.5469 33.5938 66.4922 34.5703 65.6797 35.1484C64.8828 35.7266 64.0938 36.0156 63.3125 36.0156C62.5469 36.0156 61.8438 35.9062 61.2031 35.6875C60 37.1562 58.5703 38.3594 56.9141 39.2969C55.2734 40.2188 53.5703 40.6797 51.8047 40.6797C49.2734 40.6797 47.4688 39.4844 46.3906 37.0938C45.7812 35.75 45.4766 34.2422 45.4766 32.5703C45.4766 28.7734 46.8203 25.7812 49.5078 23.5938C52.2109 21.4062 55.7969 20.3125 60.2656 20.3125C60.5781 20.3125 60.75 20.4141 60.7812 20.6172ZM62.1172 28.4219C62.1172 26.9844 61.4766 26.2656 60.1953 26.2656C58.9297 26.2656 58.2969 27.0234 58.2969 28.5391C58.2969 29.3359 58.5078 30.1641 58.9297 31.0234C59.3672 31.8672 59.9531 32.5391 60.6875 33.0391C61 32.5234 61.3125 31.8125 61.625 30.9062C61.9531 29.9844 62.1172 29.1562 62.1172 28.4219ZM71.3516 40.6797C69.5547 40.6797 68.2031 40.1172 67.2969 38.9922C66.3906 37.8672 65.9375 36.4766 65.9375 34.8203C65.9375 33.1484 66.2422 31.4844 66.8516 29.8281C67.4609 28.1562 68.2734 26.6172 69.2891 25.2109C70.3203 23.7891 71.6016 22.6172 73.1328 21.6953C74.6641 20.7734 76.2656 20.3125 77.9375 20.3125C80.1562 20.3125 81.5938 20.8438 82.25 21.9062C82.4844 22.2812 82.6016 22.7656 82.6016 23.3594C82.6016 23.9375 82.3047 24.4531 81.7109 24.9062C81.1328 25.3438 80.3984 25.5625 79.5078 25.5625C79.0234 25.5625 78.5703 25.0625 78.1484 24.0625C77.9922 23.7031 77.7344 23.3672 77.375 23.0547C77.0312 22.7422 76.625 22.5859 76.1562 22.5859C75.25 22.5859 74.3984 23.0938 73.6016 24.1094C72.8047 25.125 72.1797 26.3594 71.7266 27.8125C71.2891 29.2656 71.0703 30.6875 71.0703 32.0781C71.0703 33.4531 71.3203 34.5703 71.8203 35.4297C72.3203 36.2734 73.0781 36.6953 74.0938 36.6953C76.8125 36.6953 80.5547 34.3438 85.3203 29.6406V32.2656C81.1016 36.375 77.6172 38.9531 74.8672 40C73.6484 40.4531 72.4766 40.6797 71.3516 40.6797ZM96.125 7.44531C94.8281 7.97656 93.7188 8.78906 92.7969 9.88281C91.875 10.9766 91.4141 12.0781 91.4141 13.1875C91.4141 14.2969 91.6406 15.2656 92.0938 16.0938C92.5625 16.9219 93.1719 17.7031 93.9219 18.4375C94.6719 19.1562 95.4922 19.8984 96.3828 20.6641C97.2734 21.4141 98.1641 22.2109 99.0547 23.0547C99.9609 23.8828 100.789 24.75 101.539 25.6562C103.211 27.6719 104.047 29.9219 104.047 32.4062C104.047 33.9219 103.727 35.3359 103.086 36.6484C102.445 37.9453 101.594 39.0469 100.531 39.9531C99.4844 40.8594 98.2734 41.6406 96.8984 42.2969C94.2109 43.5781 91.3281 44.2188 88.25 44.2188C86.4375 44.2188 84.7656 43.7734 83.2344 42.8828C82.4844 42.4453 81.875 41.8516 81.4062 41.1016C80.9375 40.3672 80.7031 39.5156 80.7031 38.5469C80.7031 37.5781 81.0781 36.7812 81.8281 36.1562C82.5781 35.5312 83.5 35.1953 84.5938 35.1484L85.6016 35.1016C85.5391 35.9453 85.5078 36.6562 85.5078 37.2344C85.5078 37.8125 85.5078 38.2109 85.5078 38.4297C85.5234 38.6484 85.5547 38.9609 85.6016 39.3672C85.6641 39.7734 85.7422 40.0703 85.8359 40.2578C85.9453 40.4609 86.1094 40.6953 86.3281 40.9609C86.5469 41.2422 86.8125 41.4453 87.125 41.5703C87.9688 41.8984 88.8516 42.0625 89.7734 42.0625C90.6953 42.0625 91.5625 41.9609 92.375 41.7578C93.1875 41.5547 93.9844 41.25 94.7656 40.8438C95.5469 40.4375 96.25 39.9531 96.875 39.3906C98.2656 38.1406 98.9609 36.6328 98.9609 34.8672C98.9609 33.1953 98.125 31.3828 96.4531 29.4297C95.6094 28.4453 94.3125 27.0859 92.5625 25.3516C90.8281 23.6016 89.5859 22.2969 88.8359 21.4375C87.1641 19.5 86.3281 17.7578 86.3281 16.2109C86.3281 14.6641 86.6328 13.2578 87.2422 11.9922C87.8672 10.7266 88.6875 9.64844 89.7031 8.75781C90.7188 7.85156 91.875 7.0625 93.1719 6.39062C95.7344 5.07812 98.3984 4.42188 101.164 4.42188C103.039 4.42188 104.781 4.90625 106.391 5.875C107.219 6.35938 107.891 7.07031 108.406 8.00781C108.922 8.92969 109.18 10.0078 109.18 11.2422C109.18 11.5547 107.641 12.6094 104.562 14.4062C101.484 16.2031 99.5312 17.25 98.7031 17.5469V15.2266C98.9219 15.1016 99.6406 14.75 100.859 14.1719C103.594 12.8906 104.961 11.9297 104.961 11.2891C104.961 8.19531 103.328 6.64844 100.062 6.64844C98.7344 6.64844 97.4219 6.91406 96.125 7.44531ZM123.078 40.6797C122.125 40.6797 121.297 40.4531 120.594 40C119.906 39.5469 119.391 38.9375 119.047 38.1719C117.266 39.8438 115.18 40.6797 112.789 40.6797C111.43 40.6797 110.344 40.2266 109.531 39.3203C108.734 38.3984 108.336 37.2656 108.336 35.9219C108.336 33.5781 109.391 29.2422 111.5 22.9141C111.906 21.6953 113.141 21.0859 115.203 21.0859H116.586C116.508 21.3828 116.172 22.4219 115.578 24.2031C114.109 28.6094 113.375 31.9531 113.375 34.2344C113.375 35.3281 113.57 36.1719 113.961 36.7656C114.367 37.3594 114.984 37.6562 115.812 37.6562C116.641 37.6562 117.57 37.1875 118.602 36.25V35.9219C118.602 34.3906 118.875 32.6875 119.422 30.8125C120.484 27.1719 121.734 25.3516 123.172 25.3516C123.969 25.3516 124.367 25.8516 124.367 26.8516C124.367 27.8359 124.086 29.2578 123.523 31.1172C122.961 32.9766 122.68 34.0156 122.68 34.2344C122.68 35.3281 122.883 36.1719 123.289 36.7656C123.695 37.3594 124.227 37.6562 124.883 37.6562C125.555 37.6562 126.266 37.1797 127.016 36.2266C127.781 35.2734 128.242 34.2109 128.398 33.0391C128.461 32.7266 128.531 32.0234 128.609 30.9297C128.703 29.8203 128.812 28.7109 128.938 27.6016C129.078 26.4922 129.273 25.3594 129.523 24.2031C130.086 21.6094 131.07 20.3125 132.477 20.3125C132.82 20.3125 133.102 20.8281 133.32 21.8594C133.555 22.875 133.672 23.8203 133.672 24.6953C133.672 26.3516 133.125 28.5391 132.031 31.2578L131.469 32.6172C131.703 33.1797 132.008 33.4609 132.383 33.4609C132.758 33.4609 133.266 33.1875 133.906 32.6406C134.562 32.0781 135.594 31.0781 137 29.6406V32.3125C136.641 32.625 136.18 33.0547 135.617 33.6016C135.07 34.1328 134.641 34.5391 134.328 34.8203C133.547 35.5547 132.859 35.9219 132.266 35.9219C131.688 35.9219 131.102 35.4922 130.508 34.6328C129.773 36.3672 128.766 37.8125 127.484 38.9688C126.203 40.1094 124.734 40.6797 123.078 40.6797ZM137.656 40.6797C135.781 40.6797 134.625 39.3594 134.188 36.7188C134.094 36.0781 134.047 35.4141 134.047 34.7266C134.047 33.0234 134.469 31.3047 135.312 29.5703C136.156 27.8359 137.266 26.2891 138.641 24.9297C140.031 23.5703 141.688 22.4609 143.609 21.6016C145.547 20.7422 147.523 20.3125 149.539 20.3125C150.523 20.3125 151.836 20.5703 153.477 21.0859C153.461 21.1953 153.305 21.9141 153.008 23.2422C152.711 24.5547 152.414 25.8984 152.117 27.2734C151.305 31.0391 150.898 33.375 150.898 34.2812C150.898 35.1875 151.133 35.6406 151.602 35.6406C152.633 35.6406 155.023 33.6562 158.773 29.6875V32.3125C156.398 34.7656 154.133 36.7734 151.977 38.3359C149.836 39.8984 148.406 40.6797 147.688 40.6797C146.5 40.6797 145.906 39.6562 145.906 37.6094C145.906 36.9375 145.969 36.1797 146.094 35.3359C144.969 36.8047 143.656 38.0625 142.156 39.1094C140.672 40.1562 139.172 40.6797 137.656 40.6797ZM139.039 33.4141C139.039 35.7578 139.805 36.9297 141.336 36.9297C141.992 36.9297 142.797 36.5859 143.75 35.8984C144.719 35.2109 145.594 34.4531 146.375 33.625L149.07 22.0938C147.383 22.0938 145.75 22.6953 144.172 23.8984C142.594 25.1016 141.344 26.5781 140.422 28.3281C139.5 30.0781 139.039 31.7734 139.039 33.4141ZM167.938 49.2812C166.969 50.3906 165.953 51.2578 164.891 51.8828C163.828 52.5078 162.875 52.8203 162.031 52.8203C161.188 52.8203 160.438 52.7031 159.781 52.4688C159.141 52.25 158.578 51.875 158.094 51.3438C157.625 50.8125 157.391 50.3047 157.391 49.8203C157.391 49.3359 157.414 48.9844 157.461 48.7656C157.523 48.5469 157.641 48.3203 157.812 48.0859C157.984 47.8516 158.117 47.6562 158.211 47.5C158.32 47.3594 158.531 47.1562 158.844 46.8906C159.156 46.625 159.367 46.4453 159.477 46.3516C159.586 46.2578 159.852 46.0469 160.273 45.7188C160.695 45.4062 160.953 45.2109 161.047 45.1328L167.539 40.1406L168.289 36.1562C166.289 37.9375 164.625 39.1406 163.297 39.7656C161.984 40.375 160.75 40.6797 159.594 40.6797C158.438 40.6797 157.57 40.1953 156.992 39.2266C156.43 38.2578 156.148 37.125 156.148 35.8281C156.148 34.5156 156.352 33.125 156.758 31.6562C157.18 30.1719 157.781 28.7578 158.562 27.4141C159.359 26.0703 160.281 24.8672 161.328 23.8047C162.375 22.7422 163.594 21.8984 164.984 21.2734C166.375 20.6328 167.789 20.3125 169.227 20.3125C170.664 20.3125 173.023 20.6172 176.305 21.2266L172.719 36.3906C173.141 36 173.773 35.4062 174.617 34.6094C175.477 33.7969 176.086 33.2188 176.445 32.875C177.383 32.0156 178.43 30.9531 179.586 29.6875V32.3125L172.227 39.4609C171.492 43.5078 170.062 46.7812 167.938 49.2812ZM167.234 42.7422L163.391 46C163.297 46.0781 163.109 46.2266 162.828 46.4453C162.547 46.6641 162.344 46.8281 162.219 46.9375C162.094 47.0469 161.922 47.2188 161.703 47.4531C161.484 47.6875 161.328 47.9062 161.234 48.1094C160.953 48.6875 160.812 49.2812 160.812 49.8906C160.812 50.5156 160.945 50.9453 161.211 51.1797C161.492 51.4141 161.938 51.5312 162.547 51.5312C163.797 51.5312 164.812 50.7266 165.594 49.1172C166.391 47.5078 166.938 45.3828 167.234 42.7422ZM161.281 32.4062C161.281 35.4219 162.039 36.9297 163.555 36.9297C164.898 36.9297 166.594 35.7734 168.641 33.4609L171.359 22.0469C170.219 21.7656 169.453 21.625 169.062 21.625C168.016 21.625 167 21.9688 166.016 22.6562C165.031 23.3438 164.203 24.2109 163.531 25.2578C162.031 27.5547 161.281 29.9375 161.281 32.4062Z" fill="#FF5858"/>
</svg>
